<?xml version="1.0" encoding="UTF-8"?>
<svg id="Livello_2" data-name="Livello 2" xmlns="http://www.w3.org/2000/svg" viewBox="0 0 2115.11 1808.89">
  <defs>
    <style>
      .cls-1 {
        fill: #42bc9a;
      }

      .cls-2 {
        fill: #265e70;
      }

      .cls-3 {
        fill: #3da9b9;
      }

      .cls-4 {
        fill: #3fb99f;
      }

      .cls-5 {
        fill: #3dacb4;
      }

      .cls-6 {
        fill: #43b89b;
      }

      .cls-7 {
        fill: #3eb5a5;
      }

      .cls-8 {
        fill: #40aead;
      }

      .cls-9 {
        fill: #3aa0c2;
      }

      .cls-10 {
        fill: #48adcd;
      }

      .cls-11 {
        fill: #43adc8;
      }

      .cls-12 {
        fill: #47afcf;
      }

      .cls-13 {
        fill: #42acba;
      }

      .cls-14 {
        fill: #3ba6be;
      }

      .cls-15 {
        fill: #4ab0d5;
      }
    </style>
  </defs>
  <g id="Livello_1-2" data-name="Livello 1">
    <g>
      <path class="cls-13" d="M731.19,346.91c-7.27-8.34,35.25-22.93,41.77-27.59,22.39-16,36.47-42.48,42.41-69.1,20.43,46.07,39,72.58,88.18,90.42-46.21,18.63-70.59,42.9-86.13,90.34-17.84-41.71-37.16-76.25-86.22-84.07Z"/>
      <path class="cls-11" d="M234.13,430.26c-6,3-9.5-.3-14.22-3.2-36.82-22.62-8.64-27.93,2.4-50.64l33.28,23.67c3.29,4.98-19.76,29.32-21.46,30.17Z"/>
      <path class="cls-9" d="M683.41,624.89c7.41-1.06,24.41,21.96,30.78,27.32l-27.77,26.71c-33.17-7.28-28.27-50.41-3.02-54.03Z"/>
      <g>
        <path class="cls-11" d="M617.6,553.12c1.95,10.81-1.44,6.52-5.89,8.78-73.1,37.16-103.56,22.52-143.33,113.22-5.86,13.37-13.64,68.15-23.65,48.68-34.53-67.17-16.33-100.85-101.92-142.01-11.93-5.74-59.14-18.38-61.7-20.37-8.23-6.41,2.95-7.28,5.91-8.8,57.02-29.3,91.47-20.84,130.94-87.75,7.83-13.28,25.48-71.53,29.35-71.7,9.31-.41,23.86,53.41,30.73,66.01,28.36,51.99,83.53,80.65,139.56,93.94Z"/>
        <path class="cls-8" d="M1635.52,178.74c8.58,10.01-46.63,25.1-53.28,28.7-35.08,18.95-60.7,40.88-77.91,77.72-4.53,9.69-19.93,82.05-28.78,59.88-7.1-17.79-8.78-42.17-17.85-62.11-25.32-55.68-77.18-80.04-133.42-95.86,21.79-16.16,48.79-19.67,72.75-34.43,51.52-31.73,68.7-82.98,84.97-138.01,14.88,83.76,66.6,149.19,153.52,164.13Z"/>
        <path class="cls-7" d="M2098.21,1671.91c-7.05-16.22-7.14-46.21,0-63.09-.09,20.98.1,42.11,0,63.09Z"/>
        <path class="cls-4" d="M2098.21,1335.41c-7.06-14.74-7.15-43.52,0-58.89-.02,19.58.03,39.31,0,58.89Z"/>
        <g>
          <path class="cls-15" d="M7.71,1802.31c9.17-97.84-26.97-208.97,37.96-292.23,31.08-39.85,165.98-181.86,203.93-208.28,63.16-43.98,178.74,6.07,178.74,77.79v426.93H11.91l-4.21-4.21Z"/>
          <path class="cls-1" d="M2098.21,851.7v12.62c-.12,137.34.16,274.88,0,412.21-7.15,15.36-7.06,44.15,0,58.89-.07,44.8.07,89.8,0,134.6-33.82-1.43-18.65-61.17-20.91-86.35-.92-10.29-7.57-17.43-8.27-25.38-1.53-17.46,5.22-96.21-11.17-101.95-2.83-.99-10.3,4.43-14.44,1.65-7.21-4.84-4.42-22.63-11.08-28.08-4.49-3.67-24.11-5.54-26.05-8.69-3.84-6.25,1.19-61.59-1.01-76.8-.97-6.66-18.9-67.67-21.53-75.22-3.37-9.72-16.7-26.15-18.13-40.74-13.67-16.01-37.71,6.33-27.04-44.07,2.56-12.08,17.87-21.72,11.97-37.44-2.43-6.45-36.73-16.51-43.5-28.18-13-22.38-.44-66.7-7.24-85.3-4.08-11.17-22.67-8.91-26.78-15.28-7.96-12.31,6.34-49.22-10.57-60.92-5.77-3.99-22.25-3.82-24.45-7.14-3.13-4.71-1.59-39.5-6.94-49.82-4.73-9.12-18.57-9.52-24.93-17.13-12.72-15.22-7.92-46.84-30.64-53.47-47.77-13.94-9.01,29.85-40.99,32.89-31.57,3,20.17-22.77-6.44-25.43,30.66-55.64,145.91-171.02,212.3-172.71,206.72-5.27,152.04,257.06,157.85,387.23Z"/>
          <path class="cls-7" d="M1707.03,733.92c12.02-2.52,9.13,6.88,8.56,14.68-3.42,46.41-1.2,53.57,4.26,96.59,1.7,13.4-3.66,40.05.36,50.11,4.39,10.97,22.07,3.45,29.35,12.72,5.54,7.05,1.49,19.05,7.79,25.86s23.42,4.16,27.68,10.18c3.83,5.4-.37,16.56,5.96,23.48,5.82,6.36,23.7,4.34,27.74,10.11,7.02,10.01-3.33,43.96,3.82,55.07,4.79,7.44,27.11,4.38,31.09,15.18,7.62,20.66-10.36,74.36,10.84,90.18,6.09,4.54,15.94,1.58,19.44,6.65,9.8,14.17-.69,63.66,4.91,82.51,5.12,17.24,25.11,13.16,28.74,18.45,7.37,10.73,2.72,66.61,10.06,85.75,6.75,17.6,18.97,8.73,23.58,15.18,10.12,14.17-7.55,40.9,4.33,57.9,6.49,9.29,21.34,6.44,24.89,13.93,2.56,5.4,7.78,55.49,8.72,66.29,1.87,21.53-14.08,39.56,9.95,57.11,6.37,4.65,18.13,3.26,18.93,4.13,2.97,3.25-4.05,51.54,5.48,61.81,6.96,7.5,27.61.93,32.07,12.13,3.84,9.63-1.83,29.64.65,41.42,1.94,9.23,10.48,11.94,12.45,21.2,5.82,27.46-16.41,78.94,29.53,60.9-.39,20.97.28,42.14.02,63.12-32.19.17-64.58-.31-96.77-.02,1.45-17.25-30.08-9.23-37.1-13.39-1.34-.79-9.54-21.57-14.6-27.46-3.47-4.03-24.95-5.08-15.36-17.73,2.71-3.58,25.62.67,15.97-22.8-3.99-9.71-33.94-11.48-39.58-23.81-4.13-9.02,7.37-19.2,5.81-26.8-1.51-7.37-12.47-8.54-14.78-12.32-11.35-18.59-34.4-69.05-42.23-90.28-3.31-8.99.98-20.1-3.29-30.36-3.39-8.16-18.37-11.96-20.95-16.91-4.17-8.02-.18-20.07-3.94-25.5-4.73-6.85-23.83-.19-27.41-10.68-3.83-11.24,9.24-17.91,7.57-27.88-1.42-8.51-23.69-41.28-27.8-52.61-3.49-9.63,1.31-22.8-4.04-33.81-.85-1.74-27.45-24.79-29.27-25.47-7.09-2.63-17.52,2.59-22.92-3.17-2.07-2.21-15.89-52.78-16.52-58.28-9.29-80.8,10.82-169.81-4.01-250.47.38-89.55-2.16-179.71,0-269.2.27-11.18-.5-22.49,0-33.65Z"/>
          <path class="cls-11" d="M945.7,1806.51c2.36-12.74-6.44-8.09-14.5-8.43-17.82-.75-38.4,3.38-52.76-10.57,5.64-14.17,58.13-16.65,62.44-23.63,4.83-7.81-12.32-42.4-18.07-50.16-13.88-18.74-40.19-15.15-43.81-28.03-2.37-8.44,4.69-21.4,3.9-32.61-.97-13.68-10.65-21.73-12.63-34.02-4.89-30.4,9.19-85.74-2.51-115.29-3.76-9.5-23.01-18.22-29.02-25.66-5.3-6.57-3.89-18.75-8.84-24.81-4.48-5.48-15.1-3.57-20.03-13.62-4.96-10.13-.95-23.49-4.84-33.02-4.69-11.49-17.13-22.06-22.15-36.73-4.77-13.93-4.44-46.02-11.88-59.63s-41.85-14.2-50.59-37.72c-1.75-4.72-6.71-35.93-5.6-39.43,3.41-10.81,43.52-20.07,28.98-36.54,66.77-49.17,118.78-114.94,209.81-68.9,38.57,19.51,76.21,73.36,76.21,117.27v555.22c0,10.12-71.92,6.14-84.12,6.31Z"/>
          <path class="cls-12" d="M743.8,1196.61c14.54,16.47-25.57,25.73-28.98,36.54-1.11,3.51,3.85,34.72,5.6,39.43,8.74,23.53,43.51,24.76,50.59,37.72,7.44,13.61,7.11,45.7,11.88,59.63,5.03,14.68,17.46,25.24,22.15,36.73,3.89,9.53-.13,22.89,4.84,33.02,4.93,10.05,15.55,8.14,20.03,13.62,4.95,6.06,3.55,18.24,8.84,24.81,6,7.45,25.26,16.16,29.02,25.66,11.7,29.55-2.38,84.89,2.51,115.29,1.98,12.29,11.66,20.34,12.63,34.02.79,11.21-6.27,24.17-3.9,32.61,3.62,12.89,29.94,9.3,43.81,28.03,5.75,7.76,22.9,42.35,18.07,50.16-4.32,6.99-56.8,9.46-62.44,23.63,14.36,13.95,34.94,9.82,52.76,10.57,8.06.34,16.86-4.31,14.5,8.43-114.86,1.55-230.04-1.16-344.91,0v-443.76c0-76.88,90.38-127.39,143.01-166.15Z"/>
          <path class="cls-4" d="M1728.06,637.18c26.62,2.66-25.13,28.44,6.44,25.43,31.98-3.04-6.78-46.83,40.99-32.89,22.73,6.63,17.92,38.25,30.64,53.47,6.37,7.61,20.2,8.01,24.93,17.13,5.35,10.32,3.81,45.11,6.94,49.82,2.2,3.31,18.68,3.15,24.45,7.14,16.91,11.69,2.61,48.6,10.57,60.92,4.12,6.37,22.7,4.11,26.78,15.28,6.8,18.6-5.76,62.92,7.24,85.3,6.78,11.67,41.08,21.73,43.5,28.18,5.91,15.72-9.41,25.36-11.97,37.44-10.67,50.4,13.37,28.06,27.04,44.07,1.43,14.59,14.76,31.03,18.13,40.74,2.62,7.55,20.56,68.56,21.53,75.22,2.2,15.21-2.83,70.55,1.01,76.8,1.94,3.15,21.56,5.02,26.05,8.69,6.66,5.45,3.87,23.24,11.08,28.08,4.14,2.78,11.61-2.64,14.44-1.65,16.38,5.73,9.63,84.49,11.17,101.95.7,7.95,7.34,15.1,8.27,25.38,2.26,25.17-12.91,84.92,20.91,86.35-.07,46.2.19,92.6,0,138.81-7.14,16.88-7.05,46.88,0,63.09-.12,23.77.44,47.75,0,71.51-45.94,18.04-23.71-33.44-29.53-60.9-1.97-9.27-10.51-11.97-12.45-21.2-2.47-11.78,3.19-31.78-.65-41.42-4.46-11.2-25.11-4.63-32.07-12.13-9.53-10.27-2.52-58.56-5.48-61.81-.79-.87-12.56.52-18.93-4.13-24.04-17.55-8.08-35.59-9.95-57.11-.94-10.8-6.16-60.89-8.72-66.29-3.55-7.49-18.4-4.65-24.89-13.93-11.88-17,5.79-43.72-4.33-57.9-4.61-6.45-16.83,2.42-23.58-15.18-7.34-19.15-2.69-75.02-10.06-85.75-3.63-5.29-23.62-1.21-28.74-18.45-5.6-18.85,4.89-68.34-4.91-82.51-3.5-5.07-13.35-2.1-19.44-6.65-21.2-15.82-3.22-69.52-10.84-90.18-3.98-10.79-26.3-7.74-31.09-15.18-7.15-11.1,3.2-45.05-3.82-55.07-4.05-5.77-21.92-3.75-27.74-10.11-6.33-6.92-2.14-18.08-5.96-23.48-4.26-6.02-21.7-3.7-27.68-10.18-6.3-6.81-2.25-18.81-7.79-25.86-7.28-9.27-24.96-1.74-29.35-12.72-4.02-10.06,1.33-36.71-.36-50.11-5.45-43.02-7.68-50.19-4.26-96.59.57-7.8,3.46-17.2-8.56-14.68,2.02-45.42-1.88-55.17,21.03-96.74Z"/>
          <path class="cls-14" d="M1185.46,973.68c23.4-5.27,4.26,24.1,23.99,28.8,8.95,2.13,18.85-6.83,28.66-7.15,23.63-.76,14.26,27.18,19.48,32.4,2.56,2.56,22.51,1.11,27.76,5.86,7.07,6.39,3.01,24.05,5.9,27.78,1.65,2.13,15.56,1.43,20.53,6.81,5.82,6.31,4.72,24.24,10.72,35.54,7.23,13.63,41.41,35.73,45.82,46.72,5.81,14.48-.83,63.31,2.42,67,1.17,1.32,18.54-1.64,26.89,8.85,11.5,14.45,2.65,43.51,9.72,61.78,4.41,11.4,25.09,22.47,28.27,30.62,4.89,12.5-.5,25.17,4.39,37.67,3.47,8.87,27.39,21.83,30.55,32.54,7.5,25.38-6.65,44.54-7.48,68.48,20.75-3.39,39.34-.54,58.84-8.36-7.98,27.39,9.74,47.45,12.73,69.29,3.15,22.98-3.84,52,.91,75,3.24,15.68,18.26,12.49,20.23,26.31,2.02,14.12-10.29,20.67-12.58,33.6-6.68,37.68-3.78,57.15,37.63,56.56-.14,13.99.23,28.08,0,42.06-17.12-2.26-4.89,39.11-8.41,54.68-42.42,5.5-106.13-.28-151.42,0-2.35-13.35,6.73-7.48,14.67-8.26,9.65-.95,46.52-2.66,50.92-8.34,1.49-1.93-2-36.2-3.25-39.43-4.45-11.51-22.14-8.61-26.65-15.41-4.15-6.25.28-19.29-7.88-25.77-7.04-5.59-21.67-1.75-26-7.65-5.5-7.5,1.09-67.5-6.7-85.84-4.53-10.67-28.67-5.84-35.06-19.63-5.33-11.51-1.38-39.6-7.28-60.02-7.61-26.37-33.99-41.66-36.18-47.94-4.97-14.26,2.62-41.96-.83-58.06-2.48-11.57-22.14-25.21-27.33-39.97-7.01-19.94-2.3-47.94-7.08-64.43-2.1-7.26-12.27-11.56-15.48-18.17-5.16-10.66-2.91-27.57-13.11-33.16l-88.32-10.53c.38-96.57-2.14-193.71,0-290.23Z"/>
          <path class="cls-9" d="M1185.46,1263.91l88.32,10.53c10.19,5.59,7.94,22.5,13.11,33.16,3.2,6.62,13.37,10.91,15.48,18.17,4.78,16.49.07,44.49,7.08,64.43,5.19,14.76,24.85,28.4,27.33,39.97,3.45,16.09-4.14,43.79.83,58.06,2.19,6.28,28.57,21.57,36.18,47.94,5.89,20.42,1.95,48.51,7.28,60.02,6.38,13.79,30.53,8.95,35.06,19.63,7.78,18.34,1.2,78.34,6.7,85.84,4.33,5.9,18.95,2.06,26,7.65,8.17,6.48,3.73,19.51,7.88,25.77,4.51,6.8,22.2,3.9,26.65,15.41,1.25,3.22,4.74,37.5,3.25,39.43-4.4,5.68-41.26,7.39-50.92,8.34-7.94.78-17.02-5.09-14.67,8.26-78.45.48-157.12-.37-235.57.02.58-180.81-.7-361.82.02-542.63Z"/>
          <path class="cls-3" d="M1290.61,771.78c1.42,4.19,5.1,3.51,8.41,4.21,27.43,5.81,14.08,13.11,25.4,22.97,4.9,4.26,16.74,3.76,21.04,8.41,6.69,7.23,1.51,20.38,8.04,25.6,5.3,4.23,27.37.77,29.81,8.95,8.17,27.46-3.93,109.04-4.23,141.79,15.06,23.81,10.12,81.9,17.24,100.88,2.79,7.44,15.33,7.22,20.71,12.94,8.71,9.26,11.1,19.29,16.75,25.31,5.84,6.22,18.14,5.79,24.59,17.47,9.17,16.6.78,33.14,5.23,45.25,3.06,8.31,53.43,23.66,37.33,57.31,79.35-38.06-10.38,115.44,79.89,96.77.55,123.24,1.2,246.92,0,370.15-41.41.59-44.31-18.88-37.63-56.56,2.29-12.93,14.6-19.49,12.58-33.6-1.97-13.82-16.99-10.62-20.23-26.31-4.75-23,2.24-52.02-.91-75-2.99-21.84-20.71-41.9-12.73-69.29-19.49,7.82-38.09,4.97-58.84,8.36.84-23.94,14.98-43.1,7.48-68.48-3.16-10.71-27.08-23.67-30.55-32.54-4.89-12.5.5-25.17-4.39-37.67-3.19-8.14-23.86-19.22-28.27-30.62-7.07-18.27,1.78-47.33-9.72-61.78-8.35-10.49-25.73-7.53-26.89-8.85-3.25-3.68,3.39-52.51-2.42-67-4.41-10.99-38.59-33.09-45.82-46.72-6-11.3-4.9-29.23-10.72-35.54-4.97-5.38-18.88-4.69-20.53-6.81-2.89-3.74,1.17-21.39-5.9-27.78-5.25-4.74-25.2-3.3-27.76-5.86-5.22-5.23,4.15-33.16-19.48-32.4-9.81.32-19.71,9.28-28.66,7.15-19.73-4.7-.59-34.07-23.99-28.8,2.07-93.61-11.7-139.28,79.92-189.28l4.21-4.21c1.14-.53,2.99.5,4.21,0l8.41-4.21c2.29-.74,4.79-3.39,8.41-4.21Z"/>
          <path class="cls-8" d="M1707.03,1036.77c14.83,80.66-5.28,169.67,4.01,250.47.63,5.5,14.45,56.07,16.52,58.28,5.41,5.76,15.83.54,22.92,3.17,1.82.67,28.42,23.72,29.27,25.47,5.35,11.01.55,24.18,4.04,33.81,4.11,11.34,26.38,44.1,27.8,52.61,1.66,9.97-11.41,16.63-7.57,27.88,3.58,10.49,22.68,3.84,27.41,10.68,3.76,5.44-.23,17.48,3.94,25.5,2.57,4.95,17.55,8.75,20.95,16.91,4.27,10.27-.02,21.38,3.29,30.36,7.83,21.23,30.88,71.69,42.23,90.28,2.31,3.78,13.27,4.94,14.78,12.32,1.56,7.61-9.94,17.79-5.81,26.8,5.64,12.33,35.59,14.1,39.58,23.81,9.64,23.47-13.26,19.22-15.97,22.8-9.59,12.65,11.89,13.7,15.36,17.73,5.06,5.89,13.26,26.67,14.6,27.46,7.02,4.15,38.55-3.87,37.1,13.39-98.06.86-196.37-.64-294.44,0,.82-256.51-1.09-513.24,0-769.74ZM1732.26,1356.41l-.02,25.29h8.44s.02-25.28.02-25.28h-8.44ZM1765.93,1406.88l-.04,16.89,8.43.02.04-16.89-8.43-.02Z"/>
          <path class="cls-5" d="M1299.03,771.78c47.35-4.86,40.79-1.72,79.92,16.82l4.21,4.21c1.12.56,3.09-.56,4.21,0l4.21,4.21c87.83,45.33,180.21,76.17,189.42,187.03,9.1,109.5-.64,243.08-.14,355.57-90.27,18.67-.54-134.83-79.89-96.77,16.11-33.66-34.27-49-37.33-57.31-4.45-12.11,3.94-28.65-5.23-45.25-6.46-11.68-18.75-11.25-24.59-17.47-5.66-6.02-8.04-16.05-16.75-25.31-5.38-5.72-17.92-5.49-20.71-12.94-7.12-18.97-2.18-77.06-17.24-100.88.29-32.75,12.4-114.33,4.23-141.79-2.44-8.18-24.51-4.72-29.81-8.95-6.53-5.22-1.36-18.36-8.04-25.6-4.3-4.65-16.14-4.15-21.04-8.41-11.32-9.85,2.03-17.16-25.4-22.97v-4.21Z"/>
          <path class="cls-2" d="M1707.03,1036.77c-1.09,256.5.82,513.24,0,769.74V767.57c-2.16,89.49.38,179.65,0,269.2Z"/>
          <path class="cls-3" d="M1580.84,1751.83c-.3,18.18.25,36.53-.01,54.71-2.74.35-5.69-.38-8.4-.03,3.52-15.57-8.71-56.94,8.41-54.68Z"/>
          <path class="cls-2" d="M1299.03,771.78v4.21c-3.31-.7-6.99-.01-8.41-4.21,8.55-1.93,7.81.06,8.41,0Z"/>
          <path class="cls-2" d="M1282.2,775.98l-8.41,4.21c2.35-.97,4.27-2.87,8.41-4.21Z"/>
          <path class="cls-2" d="M1383.15,792.81l-4.21-4.21c2.14,1.01,3.32,3.77,4.21,4.21Z"/>
          <path class="cls-2" d="M1391.56,797.01l-4.21-4.21c2.08,1.05,3.26,3.72,4.21,4.21Z"/>
          <path class="cls-2" d="M1265.38,784.4c.65-.35,1.59-2.99,4.21-4.21l-4.21,4.21Z"/>
          <path class="cls-9" d="M11.91,1806.51l-4.21-4.21,4.21,4.21Z"/>
          <rect class="cls-7" x="1723.83" y="1364.84" width="25.29" height="8.44" transform="translate(365.88 3104.33) rotate(-89.95)"/>
          <rect class="cls-7" x="1761.68" y="1411.12" width="16.89" height="8.43" transform="translate(350.29 3181.85) rotate(-89.85)"/>
        </g>
        <g>
          <path class="cls-10" d="M714.36,826.46l-16.82,33.61,44.46,12.36,8.46,51.3,54.61,16.19c9.96,10.31-31.88,43.27-6.58,46.37-41.74,38.62-130.28,147.09-184.83,157.98-78.38,15.65-215.29-59.55-280.8-28.43l-300.11,255.08c-14.08,12.6-37.75,6.3-31.8-14.57l377.2-397.12c78.93-52.41,125.05,34.06,180.82,16.74,11.04-3.43,135.44-129.84,155.4-149.52Z"/>
          <path class="cls-6" d="M1732.27,267.03c38.49-40.68,78.38-80.2,117.44-120.48l-117.41-127.66L2115.11,0l-48.31,351.29c-4.29,5.23-5.07,4.51-10.72,2.05-18.88-8.21-101.66-113.7-119.21-111.23l-208.81,205.78c3.35-6.55,9.34-37.88,7.45-43.86-1.56-4.93-9.44-5.7-13.06-11.94-3.4-5.87-6.56-22.81-7.54-23.57-6.03-4.62-47.05,5.9-49.93-6.94,13.65-10.86,13.1-32.67,16.81-39.88,5.13-2.71,19.36.76,29.4-10.64,4.44-5.03,17.75-35.95,21.08-44.05Z"/>
          <path class="cls-8" d="M1450.45,510.99c-8.93.92-22.81-1.9-16.81,10.5,5.36,11.07,39.13,7.16,44.42,14.47,5.51,7.63-1.33,37.73,5,53.89,2.79,7.12,13.69,14.98,18.77,23.29,9.38,15.34,2.9,37.19,28.54,32.45-7.54,6.21-7.83,17.47-26.64,25.93-87.6,39.41-221.67-119.9-318.27-51.17-3.63-14.36,5.43-31.15,4.17-43.79s-15.15-21.12-16.75-34.43c-1.25-10.41,7.53-34.49,3.82-39.23-1.2-1.53-20.12-1.87-24.98-6.56-6.81-6.58-1.59-18.27-8.17-25.47-6.75-7.39-46.62-12.52-42.23-31.38,36.75-34.59,47.91-70.52,110.49-57.91l238.63,129.42Z"/>
          <path class="cls-13" d="M1101.33,439.48c-4.39,18.86,35.47,24,42.23,31.38,6.58,7.2,1.36,18.89,8.17,25.47,4.86,4.69,23.78,5.03,24.98,6.56,3.71,4.74-5.08,28.82-3.82,39.23,1.6,13.31,15.45,21.46,16.75,34.43s-7.8,29.43-4.17,43.79c-42.26,30.07-128.25,122.46-172.46,164.04-48,16.76-23.19-71.04-25.81-75.17-7.82-12.31-48.23,1.38-49.87-.56-2.08-2.46,3.11-24.6-2.1-33.67-7.41-12.9-42.46-2.25-44.2-25.2,70.37-69.89,138-142.26,210.31-210.31Z"/>
          <path class="cls-11" d="M891.02,649.8c1.74,22.95,36.79,12.3,44.2,25.2,5.21,9.07.01,31.21,2.1,33.67,1.64,1.94,42.05-11.74,49.87.56,2.62,4.13-22.19,91.92,25.81,75.17-71.57,67.32-142.37,135.16-214.52,201.9-25.3-3.1,16.54-36.07,6.58-46.37l-54.61-16.19-8.46-51.3-44.46-12.36,16.82-33.61c1.41-1.39,2.79-2.81,4.21-4.21l4.16,4.2.05-8.4c56.35-55.63,112.03-112.41,168.25-168.25Z"/>
          <path class="cls-7" d="M1732.27,267.03c-3.32,8.1-16.64,39.01-21.08,44.05-10.04,11.39-24.27,7.93-29.4,10.64-3.71,7.21-3.15,29.02-16.81,39.88,2.88,12.85,43.9,2.32,49.93,6.94.98.75,4.14,17.69,7.54,23.57,3.62,6.24,11.5,7.01,13.06,11.94,1.89,5.98-4.1,37.31-7.45,43.86-13.52,26.4-167.37,172.71-197.69,197.69-25.63,4.73-19.16-17.12-28.54-32.45-5.08-8.31-15.98-16.17-18.77-23.29-6.33-16.16.51-46.26-5-53.89-5.29-7.31-39.06-3.4-44.42-14.47-6-12.4,7.87-9.58,16.81-10.5,16.53-1.7,34.21.35,49.1-9.8,54.28-37.04,120.64-146.9,182.24-179.48,13.06-25.36,31.95-35.11,50.47-54.68Z"/>
          <path class="cls-10" d="M722.77,818.05l-.05,8.4-4.16-4.2c1.41-1.39,2.8-2.81,4.21-4.21Z"/>
        </g>
      </g>
    </g>
  </g>
</svg>